<?xml version="1.0" encoding="UTF-8" standalone="no"?>
<!DOCTYPE svg PUBLIC "-//W3C//DTD SVG 1.1//EN" "http://www.w3.org/Graphics/SVG/1.1/DTD/svg11.dtd">
<svg width="100%" height="100%" viewBox="0 0 16 16" version="1.1" xmlns="http://www.w3.org/2000/svg" xmlns:xlink="http://www.w3.org/1999/xlink" xml:space="preserve" xmlns:serif="http://www.serif.com/" style="fill-rule:evenodd;clip-rule:evenodd;stroke-linejoin:round;stroke-miterlimit:2;">
    <g transform="matrix(0.0372642,0,0,0.0372642,-18.4504,-9.96502)">
        <circle cx="709.806" cy="482.098" r="208.738" style="fill:white;"/>
    </g>
    <g transform="matrix(0.0372642,0,0,0.0372642,-18.4504,-9.96502)">
        <path d="M709.806,267.415C591.319,267.415 495.123,363.611 495.123,482.098C495.123,600.585 591.319,696.781 709.806,696.781C828.293,696.781 924.489,600.585 924.489,482.098C924.489,363.611 828.293,267.415 709.806,267.415ZM709.806,279.305C821.731,279.305 912.599,370.173 912.599,482.098C912.599,594.023 821.731,684.891 709.806,684.891C597.881,684.891 507.013,594.023 507.013,482.098C507.013,370.173 597.881,279.305 709.806,279.305Z" style="fill:rgb(34,32,32);"/>
    </g>
    <g transform="matrix(0.0885962,0,0,0.0885962,-455.79,-15.2561)">
        <path d="M5247.22,220.473C5246.47,218.918 5246.05,217.176 5246.05,215.337C5246.05,208.764 5251.39,203.428 5257.96,203.428C5264.53,203.428 5269.87,208.764 5269.87,215.337C5269.87,221.909 5264.53,227.245 5257.96,227.245C5257.64,227.245 5257.32,227.232 5257,227.206C5256.09,227.134 5251.43,227.224 5247.9,232.027C5244.13,237.14 5244.61,239.869 5245.1,240.687C5246.16,242.469 5246.78,244.551 5246.78,246.775C5246.78,249.026 5246.15,251.132 5245.06,252.928C5244.52,253.826 5243.98,256.184 5246.15,259.113C5248.63,262.45 5251.43,262.189 5252.09,262.043C5252.93,261.856 5253.8,261.757 5254.69,261.757C5261.26,261.757 5266.6,267.093 5266.6,273.666C5266.6,277.153 5265.1,280.292 5262.71,282.471C5261.96,283.147 5260.36,285.471 5262.18,291.038C5264.02,296.688 5266.78,297.72 5267.61,297.802C5273.63,298.397 5278.34,303.479 5278.34,309.653C5278.34,316.225 5273,321.561 5266.43,321.561C5259.86,321.561 5254.52,316.225 5254.52,309.653C5254.52,306.141 5256.04,302.983 5258.46,300.802C5259.2,300.135 5260.7,297.745 5258.87,292.115C5257.09,286.646 5254.75,285.626 5253.64,285.528C5247.56,284.996 5242.78,279.884 5242.78,273.666C5242.78,271.469 5243.38,269.411 5244.42,267.643C5244.84,266.92 5245.68,264.314 5243.36,261.184C5241.14,258.184 5238.59,258.128 5237.68,258.35C5236.78,258.568 5235.84,258.684 5234.87,258.684C5229.7,258.684 5225.3,255.389 5223.65,250.789C5223.31,249.821 5222.29,248.54 5221.08,248.54C5219.78,248.54 5218.75,249.938 5218.41,250.874C5217.31,253.856 5215.06,256.28 5212.19,257.599C5212.17,257.609 5211.91,257.727 5211.8,257.771C5210.99,258.109 5208.99,259.444 5208.99,262.445C5208.99,265.534 5211,266.826 5211.8,267.219C5211.98,267.304 5212.23,267.405 5212.28,267.429C5216.32,269.331 5219.13,273.447 5219.13,278.214C5219.13,282.885 5216.44,286.931 5212.52,288.882C5212.39,288.946 5211.91,289.166 5211.8,289.209C5210.98,289.552 5208.99,290.882 5208.99,293.884C5208.99,296.973 5211,298.323 5211.8,298.658C5211.91,298.702 5212.27,298.865 5212.34,298.9C5216.36,300.816 5219.13,304.913 5219.13,309.653C5219.13,316.225 5213.8,321.561 5207.22,321.561C5200.65,321.561 5195.32,316.225 5195.32,309.653C5195.32,304.671 5198.38,300.4 5202.73,298.624C5203.59,298.271 5205.51,296.888 5205.51,293.884C5205.51,290.966 5203.59,289.596 5202.73,289.244C5198.38,287.469 5195.32,283.197 5195.32,278.214C5195.32,273.232 5198.38,268.961 5202.73,267.185C5203.58,266.835 5205.51,265.449 5205.51,262.445C5205.51,259.527 5203.57,258.148 5202.73,257.806C5198.38,256.031 5195.32,251.758 5195.32,246.775C5195.32,241.791 5198.38,237.518 5202.73,235.744C5203.57,235.401 5205.51,234.004 5205.51,231.007C5205.51,228.081 5203.62,226.731 5202.72,226.364C5198.38,224.587 5195.32,220.317 5195.32,215.337C5195.32,208.764 5200.65,203.428 5207.22,203.428C5213.8,203.428 5219.13,208.764 5219.13,215.337C5219.13,220.136 5216.29,224.275 5212.19,226.16C5212.17,226.171 5211.91,226.287 5211.81,226.328C5211.05,226.648 5208.99,227.994 5208.99,231.007C5208.99,234.084 5210.99,235.44 5211.8,235.777C5211.9,235.823 5212.17,235.942 5212.19,235.952C5215.07,237.278 5217.34,239.723 5218.43,242.728C5218.76,243.664 5219.8,245.062 5221.08,245.062C5222.28,245.062 5223.32,243.716 5223.64,242.811C5225.27,238.185 5229.68,234.867 5234.87,234.867C5235.76,234.867 5236.62,234.964 5237.45,235.149C5238.4,235.359 5241.2,235.256 5245.1,229.965C5248.74,225.014 5247.48,221.03 5247.22,220.473Z" style="fill:rgb(34,32,32);"/>
    </g>
</svg>
