<?xml version="1.0" encoding="UTF-8" standalone="no"?><!DOCTYPE svg PUBLIC "-//W3C//DTD SVG 1.1//EN" "http://www.w3.org/Graphics/SVG/1.1/DTD/svg11.dtd"><svg width="100%" height="100%" viewBox="0 0 648 130" version="1.1" xmlns="http://www.w3.org/2000/svg" xmlns:xlink="http://www.w3.org/1999/xlink" xml:space="preserve" xmlns:serif="http://www.serif.com/" style="fill-rule:evenodd;clip-rule:evenodd;stroke-linecap:round;stroke-linejoin:round;stroke-miterlimit:1.5;"><g><circle cx="56.826" cy="56.826" r="55.874" style="fill:none;stroke:#222020;stroke-width:1.9px;"/><circle cx="39.234" cy="26.814" r="7.579" style="fill:#222020;"/><circle cx="39.234" cy="46.822" r="7.579" style="fill:#222020;"/><circle cx="56.826" cy="46.822" r="7.579" style="fill:#222020;"/><circle cx="69.442" cy="63.935" r="7.579" style="fill:#222020;"/><circle cx="76.912" cy="86.837" r="7.579" style="fill:#222020;"/><circle cx="71.524" cy="26.814" r="7.579" style="fill:#222020;"/><circle cx="39.234" cy="66.83" r="7.579" style="fill:#222020;"/><circle cx="39.234" cy="86.837" r="7.579" style="fill:#222020;"/><path d="M36.117,39.915c-0,-0 2.029,-0.671 2.029,-3.128c-0,-2.389 -2.029,-3.065 -2.029,-3.065l6.239,0c-0,0 -1.997,0.676 -1.997,3.065c0,2.457 1.997,3.128 1.997,3.128l-6.239,-0Z" style="fill:#222020;"/><path d="M71.817,81.235c0,-0 1.549,-1.677 0.284,-5.559c-1.373,-4.214 -3.507,-4.214 -3.507,-4.214l5.966,-1.943c-0,0 -1.584,1.696 -0.354,5.472c1.354,4.157 3.572,4.323 3.572,4.323l-5.961,1.921Z" style="fill:#222020;"/><path d="M62.828,60.248c-0,-0 1.167,-1.873 -0.598,-4.256c-1.766,-2.384 -3.844,-1.758 -3.844,-1.758l5.064,-3.752c0,0 -1.22,1.791 0.558,4.192c1.766,2.383 3.848,1.85 3.848,1.85l-5.028,3.724Z" style="fill:#222020;"/><path d="M46.131,43.702c0,0 0.681,2.029 1.923,2.029c1.183,0 1.885,-2.029 1.885,-2.029l-0,6.24c-0,-0 -0.702,-1.997 -1.885,-1.997c-1.242,0 -1.923,1.997 -1.923,1.997l0,-6.24Z" style="fill:#222020;"/><path d="M36.117,59.922c-0,0 2.029,-0.671 2.029,-3.128c-0,-2.389 -2.029,-3.064 -2.029,-3.064l6.239,-0c-0,-0 -1.997,0.675 -1.997,3.064c0,2.457 1.997,3.128 1.997,3.128l-6.239,0Z" style="fill:#222020;"/><path d="M58.396,39.411c0,0 2.158,0.492 4.939,-3.287c2.524,-3.431 1.329,-6.093 1.329,-6.093l6.346,4.344c0,-0 -3.388,-0.342 -5.892,3.061c-2.904,3.946 -1.696,5.673 -1.696,5.673l-5.026,-3.698Z" style="fill:#222020;"/><path d="M36.117,79.93c-0,-0 2.029,-0.671 2.029,-3.128c-0,-2.39 -2.029,-3.065 -2.029,-3.065l6.239,0c-0,0 -1.997,0.675 -1.997,3.065c0,2.457 1.997,3.128 1.997,3.128l-6.239,-0Z" style="fill:#222020;"/><g><path d="M148.661,78.459c-0.427,-0 -0.768,-0.128 -1.024,-0.384c-0.256,-0.256 -0.384,-0.597 -0.384,-1.024l-0,-42.624c-0,-0.427 0.128,-0.768 0.384,-1.024c0.256,-0.256 0.597,-0.384 1.024,-0.384l1.088,-0c0.426,-0 0.768,0.128 1.024,0.384c0.256,0.256 0.384,0.597 0.384,1.024l-0,22.656l14.272,-10.816c0.682,-0.512 1.152,-0.821 1.408,-0.928c0.256,-0.107 0.682,-0.16 1.28,-0.16l1.216,-0c0.384,-0 0.693,0.117 0.928,0.352c0.234,0.235 0.352,0.544 0.352,0.928c-0,0.469 -0.278,0.896 -0.832,1.28l-16.192,12.288l17.792,15.872c0.554,0.512 0.832,0.939 0.832,1.28c-0,0.384 -0.118,0.693 -0.352,0.928c-0.235,0.235 -0.544,0.352 -0.928,0.352l-1.024,-0c-0.64,-0 -1.11,-0.053 -1.408,-0.16c-0.299,-0.107 -0.726,-0.416 -1.28,-0.928l-16.064,-14.272l-0,13.952c-0,0.427 -0.128,0.768 -0.384,1.024c-0.256,0.256 -0.598,0.384 -1.024,0.384l-1.088,-0Z" style="fill:#222020;fill-rule:nonzero;"/><path d="M190.325,79.099c-2.048,-0 -3.947,-0.427 -5.696,-1.28c-1.75,-0.853 -3.147,-2.005 -4.192,-3.456c-1.046,-1.451 -1.568,-3.051 -1.568,-4.8c-0,-2.816 1.141,-5.12 3.424,-6.912c2.282,-1.792 5.365,-2.944 9.248,-3.456l10.112,-1.408l-0,-2.24c-0,-2.347 -0.715,-4.149 -2.144,-5.408c-1.43,-1.259 -3.616,-1.888 -6.56,-1.888c-2.176,-0 -3.958,0.427 -5.344,1.28c-1.387,0.853 -2.272,1.877 -2.656,3.072c-0.171,0.512 -0.374,0.864 -0.608,1.056c-0.235,0.192 -0.544,0.288 -0.928,0.288l-0.896,-0c-0.384,-0 -0.715,-0.139 -0.992,-0.416c-0.278,-0.277 -0.416,-0.608 -0.416,-0.992c-0,-0.939 0.426,-2.037 1.28,-3.296c0.853,-1.259 2.176,-2.357 3.968,-3.296c1.792,-0.939 3.989,-1.408 6.592,-1.408c4.565,-0 7.808,1.088 9.728,3.264c1.92,2.176 2.88,4.821 2.88,7.936l-0,21.312c-0,0.427 -0.128,0.768 -0.384,1.024c-0.256,0.256 -0.598,0.384 -1.024,0.384l-1.088,-0c-0.427,-0 -0.768,-0.128 -1.024,-0.384c-0.256,-0.256 -0.384,-0.597 -0.384,-1.024l-0,-3.008c-0.939,1.408 -2.315,2.603 -4.128,3.584c-1.814,0.981 -4.214,1.472 -7.2,1.472Zm0.64,-3.712c3.114,-0 5.674,-1.024 7.68,-3.072c2.005,-2.048 3.008,-4.992 3.008,-8.832l-0,-2.176l-8.256,1.152c-3.499,0.469 -6.144,1.28 -7.936,2.432c-1.792,1.152 -2.688,2.603 -2.688,4.352c-0,1.963 0.821,3.477 2.464,4.544c1.642,1.067 3.552,1.6 5.728,1.6Z" style="fill:#222020;fill-rule:nonzero;"/><path d="M230.197,78.459c-3.158,-0 -5.398,-0.949 -6.72,-2.848c-1.323,-1.899 -1.984,-4.512 -1.984,-7.84l-0,-18.88l-4.992,-0c-0.427,-0 -0.768,-0.128 -1.024,-0.384c-0.256,-0.256 -0.384,-0.597 -0.384,-1.024l-0,-0.896c-0,-0.427 0.128,-0.768 0.384,-1.024c0.256,-0.256 0.597,-0.384 1.024,-0.384l4.992,-0l-0,-10.752c-0,-0.427 0.128,-0.768 0.384,-1.024c0.256,-0.256 0.597,-0.384 1.024,-0.384l1.088,-0c0.426,-0 0.768,0.128 1.024,0.384c0.256,0.256 0.384,0.597 0.384,1.024l-0,10.752l7.936,-0c0.426,-0 0.768,0.128 1.024,0.384c0.256,0.256 0.384,0.597 0.384,1.024l-0,0.896c-0,0.427 -0.128,0.768 -0.384,1.024c-0.256,0.256 -0.598,0.384 -1.024,0.384l-7.936,-0l-0,18.624c-0,2.389 0.394,4.192 1.184,5.408c0.789,1.216 2.101,1.824 3.936,1.824l3.456,-0c0.426,-0 0.768,0.128 1.024,0.384c0.256,0.256 0.384,0.597 0.384,1.024l-0,0.896c-0,0.427 -0.128,0.768 -0.384,1.024c-0.256,0.256 -0.598,0.384 -1.024,0.384l-3.776,-0Z" style="fill:#222020;fill-rule:nonzero;"/><path d="M254.581,79.099c-2.048,-0 -3.947,-0.427 -5.696,-1.28c-1.75,-0.853 -3.147,-2.005 -4.192,-3.456c-1.046,-1.451 -1.568,-3.051 -1.568,-4.8c-0,-2.816 1.141,-5.12 3.424,-6.912c2.282,-1.792 5.365,-2.944 9.248,-3.456l10.112,-1.408l-0,-2.24c-0,-2.347 -0.715,-4.149 -2.144,-5.408c-1.43,-1.259 -3.616,-1.888 -6.56,-1.888c-2.176,-0 -3.958,0.427 -5.344,1.28c-1.387,0.853 -2.272,1.877 -2.656,3.072c-0.171,0.512 -0.374,0.864 -0.608,1.056c-0.235,0.192 -0.544,0.288 -0.928,0.288l-0.896,-0c-0.384,-0 -0.715,-0.139 -0.992,-0.416c-0.278,-0.277 -0.416,-0.608 -0.416,-0.992c-0,-0.939 0.426,-2.037 1.28,-3.296c0.853,-1.259 2.176,-2.357 3.968,-3.296c1.792,-0.939 3.989,-1.408 6.592,-1.408c4.565,-0 7.808,1.088 9.728,3.264c1.92,2.176 2.88,4.821 2.88,7.936l-0,21.312c-0,0.427 -0.128,0.768 -0.384,1.024c-0.256,0.256 -0.598,0.384 -1.024,0.384l-1.088,-0c-0.427,-0 -0.768,-0.128 -1.024,-0.384c-0.256,-0.256 -0.384,-0.597 -0.384,-1.024l-0,-3.008c-0.939,1.408 -2.315,2.603 -4.128,3.584c-1.814,0.981 -4.214,1.472 -7.2,1.472Zm0.64,-3.712c3.114,-0 5.674,-1.024 7.68,-3.072c2.005,-2.048 3.008,-4.992 3.008,-8.832l-0,-2.176l-8.256,1.152c-3.499,0.469 -6.144,1.28 -7.936,2.432c-1.792,1.152 -2.688,2.603 -2.688,4.352c-0,1.963 0.821,3.477 2.464,4.544c1.642,1.067 3.552,1.6 5.728,1.6Z" style="fill:#222020;fill-rule:nonzero;"/><path d="M285.045,78.459c-0.427,-0 -0.768,-0.128 -1.024,-0.384c-0.256,-0.256 -0.384,-0.597 -0.384,-1.024l-0,-42.624c-0,-0.427 0.128,-0.768 0.384,-1.024c0.256,-0.256 0.597,-0.384 1.024,-0.384l1.088,-0c0.426,-0 0.768,0.128 1.024,0.384c0.256,0.256 0.384,0.597 0.384,1.024l-0,42.624c-0,0.427 -0.128,0.768 -0.384,1.024c-0.256,0.256 -0.598,0.384 -1.024,0.384l-1.088,-0Z" style="fill:#222020;fill-rule:nonzero;"/><path d="M314.293,79.099c-4.438,-0 -7.883,-1.355 -10.336,-4.064c-2.454,-2.709 -3.744,-6.219 -3.872,-10.528l-0.064,-2.688l0.064,-2.688c0.128,-4.309 1.418,-7.819 3.872,-10.528c2.453,-2.709 5.898,-4.064 10.336,-4.064c4.437,-0 7.882,1.355 10.336,4.064c2.453,2.709 3.744,6.219 3.872,10.528c0.042,0.427 0.064,1.323 0.064,2.688c-0,1.365 -0.022,2.261 -0.064,2.688c-0.128,4.309 -1.419,7.819 -3.872,10.528c-2.454,2.709 -5.899,4.064 -10.336,4.064Zm-0,-3.712c3.029,-0 5.472,-0.971 7.328,-2.912c1.856,-1.941 2.848,-4.704 2.976,-8.288c0.042,-0.427 0.064,-1.216 0.064,-2.368c-0,-1.152 -0.022,-1.941 -0.064,-2.368c-0.128,-3.584 -1.12,-6.347 -2.976,-8.288c-1.856,-1.941 -4.299,-2.912 -7.328,-2.912c-3.03,-0 -5.472,0.971 -7.328,2.912c-1.856,1.941 -2.848,4.704 -2.976,8.288l-0.064,2.368l0.064,2.368c0.128,3.584 1.12,6.347 2.976,8.288c1.856,1.941 4.298,2.912 7.328,2.912Z" style="fill:#222020;fill-rule:nonzero;"/><path d="M353.397,92.539c-3.328,-0 -5.995,-0.576 -8,-1.728c-2.006,-1.152 -3.403,-2.464 -4.192,-3.936c-0.79,-1.472 -1.184,-2.763 -1.184,-3.872c-0,-0.384 0.138,-0.704 0.416,-0.96c0.277,-0.256 0.608,-0.384 0.992,-0.384l0.896,-0c0.384,-0 0.693,0.096 0.928,0.288c0.234,0.192 0.437,0.544 0.608,1.056c1.322,3.883 4.394,5.824 9.216,5.824c3.669,-0 6.378,-0.757 8.128,-2.272c1.749,-1.515 2.624,-4.213 2.624,-8.096l-0,-4.416c-2.475,3.371 -6.059,5.056 -10.752,5.056c-4.608,-0 -8.011,-1.504 -10.208,-4.512c-2.198,-3.008 -3.36,-6.667 -3.488,-10.976l-0.064,-1.792l0.064,-1.792c0.128,-4.309 1.29,-7.968 3.488,-10.976c2.197,-3.008 5.6,-4.512 10.208,-4.512c4.65,-0 8.234,1.685 10.752,5.056l-0,-2.944c-0,-0.427 0.128,-0.779 0.384,-1.056c0.256,-0.277 0.597,-0.416 1.024,-0.416l1.024,-0c0.426,-0 0.778,0.139 1.056,0.416c0.277,0.277 0.416,0.629 0.416,1.056l-0,31.168c-0,4.565 -1.067,8.16 -3.2,10.784c-2.134,2.624 -5.846,3.936 -11.136,3.936Zm0.064,-17.152c3.37,-0 5.909,-1.12 7.616,-3.36c1.706,-2.24 2.624,-4.875 2.752,-7.904c0.042,-0.427 0.064,-1.195 0.064,-2.304c-0,-1.109 -0.022,-1.877 -0.064,-2.304c-0.128,-3.029 -1.046,-5.664 -2.752,-7.904c-1.707,-2.24 -4.246,-3.36 -7.616,-3.36c-3.456,-0 -5.984,1.099 -7.584,3.296c-1.6,2.197 -2.464,5.024 -2.592,8.48l-0.064,1.792l0.064,1.792c0.128,3.456 0.992,6.283 2.592,8.48c1.6,2.197 4.128,3.296 7.584,3.296Z" style="fill:#222020;fill-rule:nonzero;"/><path d="M394.293,79.099c-4.182,-0 -7.36,-1.323 -9.536,-3.968c-2.176,-2.645 -3.264,-6.101 -3.264,-10.368l-0,-18.176c-0,-0.427 0.128,-0.768 0.384,-1.024c0.256,-0.256 0.597,-0.384 1.024,-0.384l1.088,-0c0.426,-0 0.768,0.128 1.024,0.384c0.256,0.256 0.384,0.597 0.384,1.024l-0,17.856c-0,7.296 3.178,10.944 9.536,10.944c3.072,-0 5.514,-0.971 7.328,-2.912c1.813,-1.941 2.72,-4.619 2.72,-8.032l-0,-17.856c-0,-0.427 0.128,-0.768 0.384,-1.024c0.256,-0.256 0.597,-0.384 1.024,-0.384l1.088,-0c0.426,-0 0.768,0.128 1.024,0.384c0.256,0.256 0.384,0.597 0.384,1.024l-0,30.464c-0,0.427 -0.128,0.768 -0.384,1.024c-0.256,0.256 -0.598,0.384 -1.024,0.384l-1.088,-0c-0.427,-0 -0.768,-0.128 -1.024,-0.384c-0.256,-0.256 -0.384,-0.597 -0.384,-1.024l-0,-3.008c-1.28,1.664 -2.742,2.923 -4.384,3.776c-1.643,0.853 -3.744,1.28 -6.304,1.28Z" style="fill:#222020;fill-rule:nonzero;"/><path d="M435.253,79.099c-4.054,-0 -7.318,-1.333 -9.792,-4c-2.475,-2.667 -3.883,-6.24 -4.224,-10.72l-0.064,-2.56l0.064,-2.56c0.341,-4.437 1.738,-8 4.192,-10.688c2.453,-2.688 5.728,-4.032 9.824,-4.032c4.437,-0 7.904,1.472 10.4,4.416c2.496,2.944 3.744,6.976 3.744,12.096l-0,0.96c-0,0.427 -0.139,0.768 -0.416,1.024c-0.278,0.256 -0.63,0.384 -1.056,0.384l-22.784,-0l-0,0.64c0.085,2.005 0.544,3.872 1.376,5.6c0.832,1.728 1.994,3.115 3.488,4.16c1.493,1.045 3.242,1.568 5.248,1.568c2.346,-0 4.256,-0.459 5.728,-1.376c1.472,-0.917 2.528,-1.845 3.168,-2.784c0.384,-0.512 0.672,-0.832 0.864,-0.96c0.192,-0.128 0.544,-0.192 1.056,-0.192l1.024,-0c0.384,-0 0.704,0.107 0.96,0.32c0.256,0.213 0.384,0.491 0.384,0.832c-0,0.896 -0.566,1.973 -1.696,3.232c-1.131,1.259 -2.699,2.347 -4.704,3.264c-2.006,0.917 -4.267,1.376 -6.784,1.376Zm10.24,-19.264l-0,-0.256c-0,-3.285 -0.928,-5.995 -2.784,-8.128c-1.856,-2.133 -4.342,-3.2 -7.456,-3.2c-3.115,-0 -5.579,1.067 -7.392,3.2c-1.814,2.133 -2.72,4.843 -2.72,8.128l-0,0.256l20.352,-0Z" style="fill:#222020;fill-rule:nonzero;"/><path d="M503.157,78.459c-0.427,-0 -0.79,-0.149 -1.088,-0.448c-0.299,-0.299 -0.448,-0.661 -0.448,-1.088l-0,-41.664c-0,-0.469 0.138,-0.853 0.416,-1.152c0.277,-0.299 0.65,-0.448 1.12,-0.448l15.616,-0c12.586,-0 19.008,5.803 19.264,17.408c0.085,2.475 0.128,4.139 0.128,4.992c-0,0.811 -0.043,2.453 -0.128,4.928c-0.171,5.973 -1.782,10.379 -4.832,13.216c-3.051,2.837 -7.755,4.256 -14.112,4.256l-15.936,-0Zm15.616,-7.424c3.541,-0 6.101,-0.789 7.68,-2.368c1.578,-1.579 2.41,-4.203 2.496,-7.872c0.085,-2.56 0.128,-4.16 0.128,-4.8c-0,-0.683 -0.043,-2.261 -0.128,-4.736c-0.086,-3.499 -0.96,-6.069 -2.624,-7.712c-1.664,-1.643 -4.288,-2.464 -7.872,-2.464l-7.808,-0l-0,29.952l8.128,-0Z" style="fill:#222020;fill-rule:nonzero;"/><path d="M560.629,79.099c-5.035,-0 -8.918,-1.28 -11.648,-3.84c-2.731,-2.56 -4.203,-6.101 -4.416,-10.624l-0.064,-2.816l0.064,-2.816c0.213,-4.48 1.706,-8.011 4.48,-10.592c2.773,-2.581 6.634,-3.872 11.584,-3.872c4.906,-0 8.746,1.291 11.52,3.872c2.773,2.581 4.266,6.112 4.48,10.592c0.042,0.512 0.064,1.451 0.064,2.816c-0,1.365 -0.022,2.304 -0.064,2.816c-0.214,4.523 -1.686,8.064 -4.416,10.624c-2.731,2.56 -6.592,3.84 -11.584,3.84Zm-0,-6.464c2.261,-0 4,-0.704 5.216,-2.112c1.216,-1.408 1.866,-3.477 1.952,-6.208c0.042,-0.427 0.064,-1.259 0.064,-2.496c-0,-1.237 -0.022,-2.069 -0.064,-2.496c-0.086,-2.731 -0.747,-4.811 -1.984,-6.24c-1.238,-1.429 -2.966,-2.144 -5.184,-2.144c-2.262,-0 -4.011,0.715 -5.248,2.144c-1.238,1.429 -1.899,3.509 -1.984,6.24l-0.064,2.496l0.064,2.496c0.085,2.731 0.746,4.8 1.984,6.208c1.237,1.408 2.986,2.112 5.248,2.112Z" style="fill:#222020;fill-rule:nonzero;"/><path d="M598.197,79.099c-4.694,-0 -8.438,-1.301 -11.232,-3.904c-2.795,-2.603 -4.278,-6.208 -4.448,-10.816l-0.064,-2.56l0.064,-2.56c0.17,-4.608 1.653,-8.213 4.448,-10.816c2.794,-2.603 6.538,-3.904 11.232,-3.904c3.37,-0 6.218,0.597 8.544,1.792c2.325,1.195 4.053,2.656 5.184,4.384c1.13,1.728 1.738,3.381 1.824,4.96c0.042,0.427 -0.096,0.789 -0.416,1.088c-0.32,0.299 -0.694,0.448 -1.12,0.448l-5.696,-0c-0.47,-0 -0.811,-0.096 -1.024,-0.288c-0.214,-0.192 -0.427,-0.544 -0.64,-1.056c-0.64,-1.621 -1.483,-2.795 -2.528,-3.52c-1.046,-0.725 -2.379,-1.088 -4,-1.088c-2.176,-0 -3.872,0.683 -5.088,2.048c-1.216,1.365 -1.867,3.456 -1.952,6.272l-0.064,2.368l0.064,2.112c0.256,5.547 2.602,8.32 7.04,8.32c1.664,-0 3.008,-0.352 4.032,-1.056c1.024,-0.704 1.856,-1.888 2.496,-3.552c0.17,-0.469 0.373,-0.811 0.608,-1.024c0.234,-0.213 0.586,-0.32 1.056,-0.32l5.696,-0c0.426,-0 0.8,0.149 1.12,0.448c0.32,0.299 0.458,0.661 0.416,1.088c-0.086,1.493 -0.683,3.104 -1.792,4.832c-1.11,1.728 -2.816,3.211 -5.12,4.448c-2.304,1.237 -5.184,1.856 -8.64,1.856Z" style="fill:#222020;fill-rule:nonzero;"/><path d="M633.077,79.099c-3.243,-0 -5.952,-0.491 -8.128,-1.472c-2.176,-0.981 -3.787,-2.123 -4.832,-3.424c-1.046,-1.301 -1.568,-2.421 -1.568,-3.36c-0,-0.427 0.138,-0.768 0.416,-1.024c0.277,-0.256 0.608,-0.384 0.992,-0.384l5.248,-0c0.341,-0 0.64,0.171 0.896,0.512c0.213,0.171 0.693,0.576 1.44,1.216c0.746,0.64 1.6,1.141 2.56,1.504c0.96,0.363 2.016,0.544 3.168,0.544c1.706,-0 3.093,-0.331 4.16,-0.992c1.066,-0.661 1.6,-1.611 1.6,-2.848c-0,-0.853 -0.246,-1.547 -0.736,-2.08c-0.491,-0.533 -1.366,-1.024 -2.624,-1.472c-1.259,-0.448 -3.147,-0.949 -5.664,-1.504c-3.627,-0.768 -6.304,-1.941 -8.032,-3.52c-1.728,-1.579 -2.592,-3.669 -2.592,-6.272c-0,-1.707 0.512,-3.317 1.536,-4.832c1.024,-1.515 2.549,-2.752 4.576,-3.712c2.026,-0.96 4.448,-1.44 7.264,-1.44c2.901,-0 5.397,0.459 7.488,1.376c2.09,0.917 3.68,2.016 4.768,3.296c1.088,1.28 1.632,2.411 1.632,3.392c-0,0.384 -0.139,0.715 -0.416,0.992c-0.278,0.277 -0.608,0.416 -0.992,0.416l-4.8,-0c-0.47,-0 -0.832,-0.171 -1.088,-0.512c-0.299,-0.213 -0.779,-0.608 -1.44,-1.184c-0.662,-0.576 -1.398,-1.035 -2.208,-1.376c-0.811,-0.341 -1.792,-0.512 -2.944,-0.512c-1.579,-0 -2.795,0.341 -3.648,1.024c-0.854,0.683 -1.28,1.579 -1.28,2.688c-0,0.768 0.202,1.408 0.608,1.92c0.405,0.512 1.226,0.992 2.464,1.44c1.237,0.448 3.093,0.907 5.568,1.376c7.68,1.493 11.52,4.843 11.52,10.048c-0,3.029 -1.312,5.483 -3.936,7.36c-2.624,1.877 -6.283,2.816 -10.976,2.816Z" style="fill:#222020;fill-rule:nonzero;"/></g></g><text x="150" y="116" font-family="system-ui, -apple-system, sans-serif" font-size="26" letter-spacing="2" font-weight="400" fill="#222020">SDK &amp; CLI</text></svg>